<svg width="75" height="69" viewBox="0 0 75 69" fill="none" xmlns="http://www.w3.org/2000/svg">
<path d="M5.40541 8.09455H0L6.08108 24.6486V26.3378H10.8108V23.6351H9.45946L5.40541 8.09455Z" fill="#EE4015"/>
<path d="M13.8514 15.1891L11.1486 22.2837L12.1622 8.77022H11.1486V8.09455H16.2162L21.6216 25.6621H22.2973V26.3378H17.2297L14.527 15.1891H13.8514Z" fill="#EE4015"/>
<path d="M24.6622 19.9189L24.3243 18.5675L20.9459 13.5L20.2703 13.1621L20.9459 12.4864L24.3243 8.77022L24.6622 7.41887L25.3378 8.77022L28.3784 12.4864L29.0541 12.8243L28.3784 13.5L25.3378 18.5675L24.6622 19.9189Z" fill="#EE4015"/>
<path d="M36.478 8.77233C34.3284 9.3077 32.4473 8.99777 31.7653 8.77305C31.7609 8.7716 31.7568 8.77499 31.7568 8.7796V26.3378H36.4865V8.77888C36.4865 8.77448 36.4823 8.77127 36.478 8.77233Z" fill="#EE4015"/>
<path d="M50.6757 8.09455H44.6599C44.3915 8.09455 44.1182 8.11149 43.8554 8.1662C37.5702 9.47501 39.299 18.2365 44.5946 18.5675C48.0392 18.7828 49.4259 19.2982 50.1891 20.3528C50.5923 20.9099 50.6849 21.624 50.6549 22.3111C50.5232 25.3243 49.7867 25.3243 48.9865 25.3243H45.2703C42.8378 25.3243 42.6802 22.3963 42.9054 20.9324H39.8649V23.9729C39.8649 25.5945 41.8919 26.2252 42.9054 26.3378H50.6757C52.5744 26.3378 53.4258 25.7866 53.8812 25.0363C54.392 24.1947 54.3919 23.1534 54.3919 22.1679V22.1379V18.9054C54.3919 18.4825 54.3919 18.1185 54.3183 17.7888C54.0857 16.7465 53.0154 16.1004 52.0275 15.695C50.9958 15.2716 49.3945 14.8853 46.6191 14.2337C45.5182 13.9753 44.3902 13.4727 43.9207 12.444C43.3205 11.1289 43.8285 10.0635 44.4205 9.48409C44.7204 9.19061 45.1505 9.10806 45.5701 9.10806H48.6487C49.1013 9.10806 49.4346 9.31863 49.6603 9.56345C49.9557 9.88379 50 10.3437 50 10.7795V12.4864H53.7162V10.1216C53.7162 9.04049 53.0405 8.09455 50.6757 8.09455Z" fill="#EE4015"/>
<path d="M58.4459 26.3378V1.67563H62.8378V9.10806C63.1081 8.29725 64.3018 8.09455 64.8649 8.09455H71.2838C73.7162 8.09455 74.7748 10.572 75 11.8108V26.3378H70.2703C70.2703 25.4369 70.6081 21.0675 70.6081 10.7972C70.6081 9.4459 69.9324 9.10806 69.5946 9.10806H65.2027C63.5811 9.10806 63.1757 11.3603 63.1757 12.4864V26.3378H58.4459Z" fill="#EE4015"/>
<path d="M35.6742 5.54994C35.744 7.26601 34.6907 7.68666 34.1181 7.67448C32.4853 7.80777 32.3011 5.12894 32.5244 3.89945C32.5852 3.5649 32.7784 3.27938 32.9928 3.01548C33.5421 2.33942 33.778 2.05865 33.8445 1.69317C34.0008 0.989482 33.2581 0.9113 33.9226 1.06767C34.4543 1.19277 34.5872 1.5368 34.5872 1.69317C34.7083 5.00046 34.7758 2.72669 35.5209 4.81053C35.6057 5.04762 35.664 5.29836 35.6742 5.54994Z" fill="#EE4015" stroke="#EE4015" stroke-width="0.221239"/>
<path d="M13.2853 28.7954H7.37028C7.03479 28.7954 6.69534 28.8149 6.36792 28.888C0.197764 30.2665 1.93603 38.9391 7.20418 39.2684C10.6488 39.4837 12.0355 39.9991 12.7987 41.0537C13.2018 41.6108 13.2944 42.3249 13.2644 43.0119C13.1328 46.0251 12.3963 46.0251 11.5961 46.0251H7.87986C5.44743 46.0251 5.28977 43.0972 5.51499 41.6332H2.47445V44.6738C2.47445 46.2954 4.50148 46.926 5.51499 47.0387H13.2853C16.2582 47.0387 17.0015 45.2369 17.0015 44.3359V39.6062C17.0015 39.1834 17.0015 38.8194 16.9279 38.4896C16.6953 37.4474 15.625 36.8012 14.6371 36.3958C13.6054 35.9725 12.0041 35.5861 9.22869 34.9346C8.12778 34.6761 6.99977 34.1736 6.53025 33.1448C5.93007 31.8298 6.43805 30.7644 7.03009 30.1849C7.32996 29.8915 7.7601 29.8089 8.17969 29.8089H11.2582C11.7614 29.8089 12.1171 30.0691 12.3415 30.3473C12.5695 30.63 12.6096 31.0076 12.6096 31.3707V33.1873H16.3258V30.8224C16.3258 29.7414 15.6188 28.7954 13.2853 28.7954Z" fill="#EE4015"/>
<rect x="19.7042" y="28.7954" width="12.1622" height="18.2432" rx="6.08108" fill="#EE4015"/>
<rect x="21.731" y="31.4978" width="8.10811" height="13.5135" rx="4.05405" fill="#EE4015"/>
<path d="M50.9945 47.1716H54.7107L52.3181 33.4752C52.1974 32.7838 52.0051 32.1068 51.7444 31.4551L51.4608 30.7461C50.3188 28.5905 45.4825 27.5414 44.469 31.2577L45.0221 37.7009C46.2637 35.8386 47.2367 32.2122 48.4346 33.1022C48.6845 33.2879 48.7842 33.6086 48.8342 33.9158L50.9945 47.1716Z" fill="#EE4015"/>
<path d="M38.2852 47.1716H34.569L36.9616 33.4752C37.0824 32.7838 37.2746 32.1068 37.5353 31.4551L37.8189 30.7461C38.9609 28.5905 43.5621 27.7055 44.5757 31.4218L45.0221 37.8116C43.7781 35.9455 42.1558 32.2147 40.8517 33.1096C40.595 33.2857 40.4956 33.6086 40.4455 33.9158L38.2852 47.1716Z" fill="#EE4015"/>
<path d="M70.156 34.1575C69.1605 36.8725 66.0934 38.4149 63.6645 39.1802C62.185 39.6463 60.6986 40.7962 61.063 42.304C61.3616 43.5398 62.2054 44.1015 62.765 44.2414C65.9662 45.3298 70.1026 41.7071 71.1964 39.7597H72.5569C70.4761 44.2414 65.7543 47.8428 61.3526 46.8824C57.0309 45.4419 56.9509 42.8008 57.9112 36.3183C58.9924 32.485 60.4659 30.734 61.887 29.8237C63.4068 28.8502 65.3099 28.7954 67.1148 28.7954C68.7154 28.7954 71.1164 30.316 70.156 34.1575Z" fill="#EE4015"/>
<rect x="12.1397" y="49.6293" width="14.8649" height="18.9189" rx="7.43243" fill="#EE4015"/>
<rect x="14.8427" y="52.332" width="9.45946" height="14.1892" rx="4.72973" fill="#EE4015"/>
<path d="M42.9756 49.8329H46.6918L44.4204 62.8361C44.2191 63.9885 43.8986 65.1168 43.4642 66.2029L43.442 66.2585C42.3645 68.2922 38.208 69.1949 36.8902 66.1696C36.7264 65.7934 36.7056 65.3735 36.7454 64.9651L37.2324 59.9681C38.4754 61.8327 39.2555 64.9036 40.4244 63.9111C40.6617 63.7096 40.7653 63.396 40.8154 63.0887L42.9756 49.8329Z" fill="#EE4015"/>
<path d="M33.3756 68.3445H29.6594L31.9309 55.3413C32.1322 54.189 32.4526 53.0607 32.8871 51.9746L32.9093 51.919C34.0048 49.8513 38.2833 48.9527 39.5248 52.163C39.6331 52.4431 39.6661 52.7468 39.6661 53.0471V57.8715C38.42 56.0025 37.1739 53.2086 35.9279 54.2677C35.6907 54.4694 35.586 54.7815 35.5359 55.0887L33.3756 68.3445Z" fill="#EE4015"/>
<path d="M51.7116 68.5482H55.09H62.1846C62.5577 68.5482 62.8603 68.2457 62.8603 67.8725V66.5212C62.8603 66.148 62.5577 65.8455 62.1846 65.8455H55.09V60.1022H60.8332C61.2064 60.1022 61.5089 59.7997 61.5089 59.4266V58.4131C61.5089 58.0399 61.2064 57.7374 60.8332 57.7374H55.09V51.9941H62.1846C62.5577 51.9941 62.8603 51.6916 62.8603 51.3185V50.3049C62.8603 49.9318 62.5577 49.6293 62.1846 49.6293H49.3467V50.3049V51.9941H51.7116V66.859H49.3467V68.5482H51.7116Z" fill="#EE4015"/>
</svg>
